<svg xmlns="http://www.w3.org/2000/svg" viewBox="0 0 120 124" role="img" aria-label="Aura Estética" fill="none">
  <!-- Aro (bastidor) dourado -->
  <circle cx="60" cy="72" r="42" stroke="#C5A880" stroke-width="4"/>
  <circle cx="60" cy="72" r="37.5" stroke="#C5A880" stroke-width="1.1" opacity="0.5"/>
  <rect x="54.5" y="25.5" width="11" height="9" rx="2.5" stroke="#C5A880" stroke-width="2.4"/>

  <!-- Flor superior -->
  <g transform="translate(60,17)" fill="#F4E8D2" stroke="#C5A880" stroke-width="1.3">
    <ellipse transform="rotate(0)" cy="-7" rx="3.6" ry="6.2"/>
    <ellipse transform="rotate(72)" cy="-7" rx="3.6" ry="6.2"/>
    <ellipse transform="rotate(144)" cy="-7" rx="3.6" ry="6.2"/>
    <ellipse transform="rotate(216)" cy="-7" rx="3.6" ry="6.2"/>
    <ellipse transform="rotate(288)" cy="-7" rx="3.6" ry="6.2"/>
    <circle r="2.6" fill="#C5A880" stroke="none"/>
  </g>

  <!-- Cabelo e rosto sereno (linha contínua) -->
  <g stroke="#1C1917" stroke-width="1.9" stroke-linecap="round" stroke-linejoin="round">
    <path d="M60 46 C47 46 39 58 40 74 C41 89 48 98 53 102"/>
    <path d="M59 50 C53 54 51 63 52 75 C53 86 57 93 59 97"/>
    <path d="M60 46 C73 46 81 58 80 74 C79 89 72 98 67 102"/>
    <path d="M61 50 C67 54 69 63 68 75 C67 86 63 93 61 97"/>
    <path d="M53 63.5 Q56.2 61.4 59.2 63.4" stroke-width="1.6"/>
    <path d="M60.8 63.4 Q63.8 61.4 67 63.5" stroke-width="1.6"/>
    <path d="M53.2 67.4 Q56.4 70 59.4 67.6" stroke-width="1.6"/>
    <path d="M60.6 67.6 Q63.6 70 66.8 67.4" stroke-width="1.6"/>
    <path d="M60 70 Q60.6 75 58.4 77 Q60 78.2 61.6 77.2" stroke-width="1.5"/>
    <path d="M56 84 Q60 86.2 64 84" stroke-width="1.6"/>
    <path d="M56 84 Q60 88.6 64 84" stroke-width="1.6"/>
  </g>

  <!-- Flor lateral no cabelo -->
  <g transform="translate(48,78)" fill="#FBF4E6" stroke="#AC8F63" stroke-width="1">
    <ellipse transform="rotate(0)" cy="-4.2" rx="2.3" ry="3.8"/>
    <ellipse transform="rotate(72)" cy="-4.2" rx="2.3" ry="3.8"/>
    <ellipse transform="rotate(144)" cy="-4.2" rx="2.3" ry="3.8"/>
    <ellipse transform="rotate(216)" cy="-4.2" rx="2.3" ry="3.8"/>
    <ellipse transform="rotate(288)" cy="-4.2" rx="2.3" ry="3.8"/>
    <circle r="1.7" fill="#C5A880" stroke="none"/>
  </g>
</svg>
